<svg xmlns="http://www.w3.org/2000/svg"  viewBox="0 0 100 100" width="100px" height="100px"><path d="M24.5,97C18.71,97,14,92.29,14,86.5v-69C14,11.71,18.71,7,24.5,7h54 C84.29,7,89,11.71,89,17.5v69C89,92.29,84.29,97,78.5,97H24.5z" opacity=".35"/><path fill="#f2f2f2" d="M22.5,95C16.71,95,12,90.29,12,84.5v-69C12,9.71,16.71,5,22.5,5h54C82.29,5,87,9.71,87,15.5v69 C87,90.29,82.29,95,76.5,95H22.5z"/><rect width="11" height="15" x="69" y="12" fill="#ff7575"/><rect width="11" height="15" x="69" y="27" fill="#ffc571"/><rect width="11" height="15" x="69" y="42" fill="#96c362"/><rect width="11" height="15" x="69" y="57" fill="#2785bd"/><rect width="11" height="15" x="69" y="72" fill="#bd7bc8"/><path fill="#9aa2e6" d="M69.5,87.028h-47c-2.209,0-4-1.791-4-4V16.978c0-2.209,1.791-4,4-4h47c2.209,0,4,1.791,4,4v66.051 C73.5,85.237,71.709,87.028,69.5,87.028z"/><circle cx="51" cy="44" r="6" fill="#f2f2f2"/><path fill="#f2f2f2" d="M51,53L51,53c-5.523,0-10,4.477-10,10h20C61,57.477,56.523,53,51,53z"/><rect width="9" height="76" x="19" y="12" fill="#707cc0"/><path fill="none" stroke="#40396e" stroke-linecap="round" stroke-linejoin="round" stroke-miterlimit="10" stroke-width="3" d="M76.5,88.5h-54c-2.209,0-4-1.791-4-4v-69c0-2.209,1.791-4,4-4h54c2.209,0,4,1.791,4,4v69C80.5,86.709,78.709,88.5,76.5,88.5z"/></svg>